<?xml version="1.0" encoding="UTF-8"?>
<svg id="Layer_2" data-name="Layer 2" xmlns="http://www.w3.org/2000/svg" viewBox="0 0 1059.26 78.18">
  <defs>
    <style>
      .cls-1 {
        fill: none;
        stroke: #fff;
        stroke-miterlimit: 10;
      }
    </style>
  </defs>
  <g id="Layer_1-2" data-name="Layer 1">
    <g>
      <path class="cls-1" d="m.5,1.57h14.78c4.81,0,8.42,1.57,10.82,4.72,2.41,3.15,3.61,7.76,3.61,13.83v37.95c0,6.08-1.2,10.69-3.61,13.83-2.41,3.15-6.01,4.72-10.82,4.72H.5V1.57Zm14.61,64.32c1.58,0,2.8-.57,3.65-1.72.85-1.14,1.28-3,1.28-5.57V19.58c0-2.57-.43-4.43-1.28-5.57-.85-1.14-2.07-1.71-3.65-1.71h-4.93v53.6h4.93Z"/>
      <path class="cls-1" d="m37.02,1.57h9.68v75.04h-9.68V1.57Z"/>
      <path class="cls-1" d="m57.7,72.81c-2.46-3.25-3.7-7.91-3.7-13.99V19.37c0-6.07,1.23-10.74,3.7-13.99,2.46-3.25,6.04-4.88,10.74-4.88s8.27,1.63,10.74,4.88c2.46,3.25,3.7,7.92,3.7,13.99v6.43h-9.15v-7.18c0-4.93-1.67-7.4-5.02-7.4s-5.02,2.47-5.02,7.4v41.06c0,4.86,1.67,7.29,5.02,7.29s5.02-2.43,5.02-7.29v-14.69h-4.84v-10.72h13.99v24.55c0,6.08-1.23,10.74-3.7,13.99-2.46,3.25-6.04,4.88-10.74,4.88s-8.27-1.62-10.74-4.88Z"/>
      <path class="cls-1" d="m89.9,1.57h9.68v75.04h-9.68V1.57Z"/>
      <path class="cls-1" d="m115.16,12.29h-10.12V1.57h29.92v10.72h-10.12v64.32h-9.68V12.29Z"/>
      <path class="cls-1" d="m143.85,1.57h13.11l10.03,75.04h-9.68l-1.76-14.9v.21h-11l-1.76,14.69h-8.98L143.85,1.57Zm10.56,50.17l-4.31-37.09h-.18l-4.22,37.09h8.71Z"/>
      <path class="cls-1" d="m172.45,1.57h9.68v64.32h15.93v10.72h-25.61V1.57Z"/>
      <path class="cls-1" d="m218.38,1.57h9.68v75.04h-9.68V1.57Z"/>
      <path class="cls-1" d="m236.07,1.57h9.68v64.32h15.93v10.72h-25.61V1.57Z"/>
      <path class="cls-1" d="m267.13,1.57h9.68v64.32h15.93v10.72h-25.61V1.57Z"/>
      <path class="cls-1" d="m301.54,72.81c-2.46-3.25-3.7-7.91-3.7-13.99V1.57h9.68v58.1c0,2.57.43,4.43,1.28,5.57.85,1.14,2.07,1.71,3.65,1.71s2.8-.57,3.65-1.71c.85-1.14,1.28-3,1.28-5.57V1.57h9.33v57.25c0,6.08-1.23,10.74-3.7,13.99-2.46,3.25-6.04,4.88-10.74,4.88s-8.27-1.62-10.74-4.88Z"/>
      <path class="cls-1" d="m336.3,72.81c-2.41-3.25-3.61-7.91-3.61-13.99v-4.29h9.15v5.15c0,4.86,1.67,7.29,5.02,7.29,1.64,0,2.89-.59,3.74-1.77.85-1.18,1.28-3.09,1.28-5.74,0-3.14-.59-5.91-1.76-8.31-1.17-2.39-3.34-5.27-6.51-8.63-3.99-4.29-6.78-8.16-8.36-11.63-1.58-3.47-2.38-7.38-2.38-11.74,0-5.93,1.23-10.52,3.7-13.78,2.46-3.25,6.04-4.88,10.74-4.88s8.14,1.63,10.52,4.88c2.38,3.25,3.56,7.92,3.56,13.99v3.11h-9.15v-3.86c0-2.57-.41-4.45-1.23-5.63-.82-1.18-2.02-1.77-3.61-1.77-3.23,0-4.84,2.4-4.84,7.18,0,2.72.6,5.25,1.8,7.61,1.2,2.36,3.39,5.22,6.56,8.58,4.05,4.29,6.83,8.18,8.36,11.69,1.53,3.5,2.29,7.61,2.29,12.33,0,6.15-1.25,10.86-3.74,14.15-2.49,3.29-6.12,4.93-10.87,4.93s-8.24-1.62-10.65-4.88Z"/>
      <path class="cls-1" d="m375.46,12.29h-10.12V1.57h29.92v10.72h-10.12v64.32h-9.68V12.29Z"/>
      <path class="cls-1" d="m400.71,1.57h14.34c4.99,0,8.62,1.41,10.91,4.23,2.29,2.82,3.43,7.17,3.43,13.02v4.61c0,7.79-2.11,12.72-6.34,14.79v.21c2.35.86,4,2.61,4.97,5.25.97,2.64,1.45,6.18,1.45,10.61v13.19c0,2.14.06,3.88.18,5.2.12,1.32.41,2.63.88,3.91h-9.86c-.35-1.21-.59-2.36-.7-3.43-.12-1.07-.18-3-.18-5.79v-13.72c0-3.43-.46-5.82-1.36-7.18-.91-1.36-2.48-2.04-4.71-2.04h-3.34v32.16h-9.68V1.57Zm13.2,32.16c1.94,0,3.39-.61,4.36-1.82.97-1.21,1.45-3.25,1.45-6.11v-5.79c0-2.72-.4-4.68-1.19-5.9-.79-1.21-2.04-1.82-3.74-1.82h-4.4v21.44h3.52Z"/>
      <path class="cls-1" d="m444.45,1.57h13.11l10.03,75.04h-9.68l-1.76-14.9v.21h-11l-1.76,14.69h-8.98L444.45,1.57Zm10.56,50.17l-4.31-37.09h-.18l-4.22,37.09h8.71Z"/>
      <path class="cls-1" d="m476.57,12.29h-10.12V1.57h29.92v10.72h-10.12v64.32h-9.68V12.29Z"/>
      <path class="cls-1" d="m501.83,1.57h9.68v75.04h-9.68V1.57Z"/>
      <path class="cls-1" d="m522.59,72.75c-2.52-3.29-3.78-7.93-3.78-13.94V19.37c0-6,1.26-10.65,3.78-13.94,2.52-3.29,6.16-4.93,10.91-4.93s8.39,1.64,10.91,4.93c2.52,3.29,3.78,7.93,3.78,13.94v39.45c0,6-1.26,10.65-3.78,13.94-2.52,3.29-6.16,4.93-10.91,4.93s-8.39-1.64-10.91-4.93Zm15.93-13.19V18.62c0-4.93-1.67-7.4-5.02-7.4s-5.02,2.47-5.02,7.4v40.95c0,4.93,1.67,7.4,5.02,7.4s5.02-2.46,5.02-7.4Z"/>
      <path class="cls-1" d="m555.5,1.57h12.14l9.42,44.92h.18V1.57h8.62v75.04h-9.94l-11.62-54.78h-.18v54.78h-8.62V1.57Z"/>
      <path class="cls-1" d="m623.61,1.57h13.82l6.16,53.71h.18l6.16-53.71h13.82v75.04h-9.15V19.8h-.18l-7.04,56.82h-8.1l-7.04-56.82h-.18v56.82h-8.45V1.57Z"/>
      <path class="cls-1" d="m679.23,1.57h13.11l10.03,75.04h-9.68l-1.76-14.9v.21h-11l-1.76,14.69h-8.98l10.03-75.04Zm10.56,50.17l-4.31-37.09h-.18l-4.22,37.09h8.71Z"/>
      <path class="cls-1" d="m711.35,12.29h-10.12V1.57h29.92v10.72h-10.12v64.32h-9.68V12.29Z"/>
      <path class="cls-1" d="m745.05,12.29h-10.12V1.57h29.92v10.72h-10.12v64.32h-9.68V12.29Z"/>
      <path class="cls-1" d="m770.31,1.57h26.4v10.72h-16.72v19.83h13.29v10.72h-13.29v23.05h16.72v10.72h-26.4V1.57Z"/>
      <path class="cls-1" d="m817.92,1.57h14.26c4.81,0,8.42,1.57,10.82,4.72,2.4,3.15,3.61,7.76,3.61,13.83v7.4c0,6.08-1.2,10.69-3.61,13.83-2.41,3.15-6.01,4.72-10.82,4.72h-4.58v30.55h-9.68V1.57Zm14.26,33.77c1.58,0,2.77-.54,3.56-1.61.79-1.07,1.19-2.89,1.19-5.47v-8.9c0-2.57-.4-4.4-1.19-5.47-.79-1.07-1.98-1.61-3.56-1.61h-4.58v23.05h4.58Z"/>
      <path class="cls-1" d="m857.07,1.57h13.11l10.03,75.04h-9.68l-1.76-14.9v.21h-11l-1.76,14.69h-8.98l10.03-75.04Zm10.56,50.17l-4.31-37.09h-.18l-4.22,37.09h8.71Z"/>
      <path class="cls-1" d="m885.67,1.57h9.68v75.04h-9.68V1.57Z"/>
      <path class="cls-1" d="m903.36,1.57h12.14l9.42,44.92h.18V1.57h8.62v75.04h-9.94l-11.62-54.78h-.18v54.78h-8.62V1.57Z"/>
      <path class="cls-1" d="m949.29,12.29h-10.12V1.57h29.92v10.72h-10.12v64.32h-9.68V12.29Z"/>
      <path class="cls-1" d="m974.55,1.57h9.68v75.04h-9.68V1.57Z"/>
      <path class="cls-1" d="m992.24,1.57h12.14l9.42,44.92h.18V1.57h8.62v75.04h-9.94l-11.62-54.78h-.18v54.78h-8.62V1.57Z"/>
      <path class="cls-1" d="m1033.6,72.81c-2.46-3.25-3.7-7.91-3.7-13.99V19.37c0-6.07,1.23-10.74,3.7-13.99,2.46-3.25,6.04-4.88,10.74-4.88s8.27,1.63,10.74,4.88c2.46,3.25,3.7,7.92,3.7,13.99v6.43h-9.15v-7.18c0-4.93-1.67-7.4-5.02-7.4s-5.02,2.47-5.02,7.4v41.06c0,4.86,1.67,7.29,5.02,7.29s5.02-2.43,5.02-7.29v-14.69h-4.84v-10.72h13.99v24.55c0,6.08-1.23,10.74-3.7,13.99-2.46,3.25-6.04,4.88-10.74,4.88s-8.27-1.62-10.74-4.88Z"/>
    </g>
  </g>
</svg>