<?xml version="1.0" encoding="UTF-8"?>
<svg id="Layer_2" data-name="Layer 2" xmlns="http://www.w3.org/2000/svg" viewBox="0 0 1232.21 74">
  <defs>
    <style>
      .cls-1 {
        stroke: #000;
        stroke-miterlimit: 10;
        stroke-width: 2px;
      }
    </style>
  </defs>
  <g id="Layer_1-2" data-name="Layer 1">
    <g>
      <path class="cls-1" d="m1,2h14.78c4.81,0,8.42,1.47,10.82,4.4,2.41,2.93,3.61,7.23,3.61,12.9v35.4c0,5.67-1.2,9.97-3.61,12.9-2.41,2.93-6.01,4.4-10.82,4.4H1V2Zm14.61,60c1.58,0,2.8-.53,3.65-1.6.85-1.07,1.28-2.8,1.28-5.2V18.8c0-2.4-.43-4.13-1.28-5.2-.85-1.07-2.07-1.6-3.65-1.6h-4.93v50h4.93Z"/>
      <path class="cls-1" d="m36.73,2h9.68v70h-9.68V2Z"/>
      <path class="cls-1" d="m56.61,68.45c-2.46-3.03-3.7-7.38-3.7-13.05V18.6c0-5.67,1.23-10.02,3.7-13.05,2.46-3.03,6.04-4.55,10.74-4.55s8.27,1.52,10.74,4.55c2.46,3.03,3.7,7.38,3.7,13.05v6h-9.15v-6.7c0-4.6-1.67-6.9-5.02-6.9s-5.02,2.3-5.02,6.9v38.3c0,4.53,1.67,6.8,5.02,6.8s5.02-2.27,5.02-6.8v-13.7h-4.84v-10h13.99v22.9c0,5.67-1.23,10.02-3.7,13.05-2.46,3.03-6.04,4.55-10.74,4.55s-8.27-1.52-10.74-4.55Z"/>
      <path class="cls-1" d="m88.03,2h9.68v70h-9.68V2Z"/>
      <path class="cls-1" d="m112.49,12h-10.12V2h29.92v10h-10.12v60h-9.68V12Z"/>
      <path class="cls-1" d="m140.39,2h13.11l10.03,70h-9.68l-1.76-13.9v.2h-11l-1.76,13.7h-8.98L140.39,2Zm10.56,46.8l-4.31-34.6h-.18l-4.22,34.6h8.71Z"/>
      <path class="cls-1" d="m168.19,2h9.68v60h15.93v10h-25.61V2Z"/>
      <path class="cls-1" d="m212.55,2h9.68v70h-9.68V2Z"/>
      <path class="cls-1" d="m229.44,2h9.68v60h15.93v10h-25.61V2Z"/>
      <path class="cls-1" d="m259.71,2h9.68v60h15.93v10h-25.61V2Z"/>
      <path class="cls-1" d="m293.33,68.45c-2.46-3.03-3.7-7.38-3.7-13.05V2h9.68v54.2c0,2.4.43,4.13,1.28,5.2.85,1.07,2.07,1.6,3.65,1.6s2.8-.53,3.65-1.6c.85-1.07,1.28-2.8,1.28-5.2V2h9.33v53.4c0,5.67-1.23,10.02-3.7,13.05-2.46,3.03-6.04,4.55-10.74,4.55s-8.27-1.52-10.74-4.55Z"/>
      <path class="cls-1" d="m327.29,68.45c-2.41-3.03-3.61-7.38-3.61-13.05v-4h9.15v4.8c0,4.53,1.67,6.8,5.02,6.8,1.64,0,2.89-.55,3.74-1.65.85-1.1,1.28-2.88,1.28-5.35,0-2.93-.59-5.52-1.76-7.75-1.17-2.23-3.34-4.92-6.51-8.05-3.99-4-6.78-7.62-8.36-10.85-1.58-3.23-2.38-6.88-2.38-10.95,0-5.53,1.23-9.82,3.7-12.85,2.46-3.03,6.04-4.55,10.74-4.55s8.14,1.52,10.52,4.55c2.38,3.03,3.56,7.38,3.56,13.05v2.9h-9.15v-3.6c0-2.4-.41-4.15-1.23-5.25-.82-1.1-2.02-1.65-3.61-1.65-3.23,0-4.84,2.23-4.84,6.7,0,2.53.6,4.9,1.8,7.1,1.2,2.2,3.39,4.87,6.56,8,4.05,4,6.83,7.63,8.36,10.9,1.53,3.27,2.29,7.1,2.29,11.5,0,5.73-1.25,10.13-3.74,13.2-2.49,3.07-6.12,4.6-10.87,4.6s-8.24-1.52-10.65-4.55Z"/>
      <path class="cls-1" d="m365.66,12h-10.12V2h29.92v10h-10.12v60h-9.68V12Z"/>
      <path class="cls-1" d="m390.13,2h14.34c4.99,0,8.62,1.32,10.91,3.95,2.29,2.63,3.43,6.68,3.43,12.15v4.3c0,7.27-2.11,11.87-6.34,13.8v.2c2.35.8,4,2.43,4.97,4.9.97,2.47,1.45,5.77,1.45,9.9v12.3c0,2,.06,3.62.18,4.85.12,1.23.41,2.45.88,3.65h-9.86c-.35-1.13-.59-2.2-.7-3.2-.12-1-.18-2.8-.18-5.4v-12.8c0-3.2-.46-5.43-1.36-6.7-.91-1.27-2.48-1.9-4.71-1.9h-3.34v30h-9.68V2Zm13.2,30c1.94,0,3.39-.57,4.36-1.7.97-1.13,1.45-3.03,1.45-5.7v-5.4c0-2.53-.4-4.37-1.19-5.5-.79-1.13-2.04-1.7-3.74-1.7h-4.4v20h3.52Z"/>
      <path class="cls-1" d="m433.07,2h13.11l10.03,70h-9.68l-1.76-13.9v.2h-11l-1.76,13.7h-8.98l10.03-70Zm10.56,46.8l-4.31-34.6h-.18l-4.22,34.6h8.71Z"/>
      <path class="cls-1" d="m464.4,12h-10.12V2h29.92v10h-10.12v60h-9.68V12Z"/>
      <path class="cls-1" d="m488.86,2h9.68v70h-9.68V2Z"/>
      <path class="cls-1" d="m508.84,68.4c-2.52-3.07-3.78-7.4-3.78-13V18.6c0-5.6,1.26-9.93,3.78-13,2.52-3.07,6.16-4.6,10.91-4.6s8.39,1.53,10.91,4.6c2.52,3.07,3.78,7.4,3.78,13v36.8c0,5.6-1.26,9.93-3.78,13-2.52,3.07-6.16,4.6-10.91,4.6s-8.39-1.53-10.91-4.6Zm15.93-12.3V17.9c0-4.6-1.67-6.9-5.02-6.9s-5.02,2.3-5.02,6.9v38.2c0,4.6,1.67,6.9,5.02,6.9s5.02-2.3,5.02-6.9Z"/>
      <path class="cls-1" d="m540.96,2h12.14l9.42,41.9h.18V2h8.62v70h-9.94l-11.62-51.1h-.18v51.1h-8.62V2Z"/>
      <path class="cls-1" d="m592.61,2h14.78c4.81,0,8.42,1.47,10.82,4.4,2.41,2.93,3.61,7.23,3.61,12.9v35.4c0,5.67-1.2,9.97-3.61,12.9-2.41,2.93-6.01,4.4-10.82,4.4h-14.78V2Zm14.61,60c1.58,0,2.8-.53,3.65-1.6.85-1.07,1.28-2.8,1.28-5.2V18.8c0-2.4-.43-4.13-1.28-5.2-.85-1.07-2.07-1.6-3.65-1.6h-4.93v50h4.93Z"/>
      <path class="cls-1" d="m628.34,2h14.34c4.99,0,8.62,1.32,10.91,3.95,2.29,2.63,3.43,6.68,3.43,12.15v4.3c0,7.27-2.11,11.87-6.34,13.8v.2c2.35.8,4,2.43,4.97,4.9.97,2.47,1.45,5.77,1.45,9.9v12.3c0,2,.06,3.62.18,4.85.12,1.23.41,2.45.88,3.65h-9.86c-.35-1.13-.59-2.2-.7-3.2-.12-1-.18-2.8-.18-5.4v-12.8c0-3.2-.46-5.43-1.36-6.7-.91-1.27-2.48-1.9-4.71-1.9h-3.34v30h-9.68V2Zm13.2,30c1.94,0,3.39-.57,4.36-1.7.97-1.13,1.45-3.03,1.45-5.7v-5.4c0-2.53-.4-4.37-1.19-5.5-.79-1.13-2.04-1.7-3.74-1.7h-4.4v20h3.52Z"/>
      <path class="cls-1" d="m671.28,2h13.11l10.03,70h-9.68l-1.76-13.9v.2h-11l-1.76,13.7h-8.98l10.03-70Zm10.56,46.8l-4.31-34.6h-.18l-4.22,34.6h8.71Z"/>
      <path class="cls-1" d="m695.57,2h9.33l4.31,53.8h.18l4.58-53.8h10.56l4.58,53.8h.18l4.31-53.8h8.36l-6.25,70h-12.06l-4.4-47.2h-.18l-4.4,47.2h-12.85l-6.25-70Z"/>
      <path class="cls-1" d="m746.87,2h9.68v70h-9.68V2Z"/>
      <path class="cls-1" d="m763.77,2h12.14l9.42,41.9h.18V2h8.62v70h-9.94l-11.62-51.1h-.18v51.1h-8.62V2Z"/>
      <path class="cls-1" d="m804.33,68.45c-2.46-3.03-3.7-7.38-3.7-13.05V18.6c0-5.67,1.23-10.02,3.7-13.05,2.46-3.03,6.04-4.55,10.74-4.55s8.27,1.52,10.74,4.55c2.46,3.03,3.7,7.38,3.7,13.05v6h-9.15v-6.7c0-4.6-1.67-6.9-5.02-6.9s-5.02,2.3-5.02,6.9v38.3c0,4.53,1.67,6.8,5.02,6.8s5.02-2.27,5.02-6.8v-13.7h-4.84v-10h13.99v22.9c0,5.67-1.23,10.02-3.7,13.05-2.46,3.03-6.04,4.55-10.74,4.55s-8.27-1.52-10.74-4.55Z"/>
      <path class="cls-1" d="m852.86,68.5c-2.43-3-3.65-7.23-3.65-12.7V18.2c0-5.47,1.22-9.7,3.65-12.7s5.97-4.5,10.6-4.5,8.17,1.5,10.6,4.5,3.65,7.23,3.65,12.7v7.4h-9.15v-8.1c0-4.33-1.61-6.5-4.84-6.5s-4.84,2.17-4.84,6.5v39.1c0,4.27,1.61,6.4,4.84,6.4s4.84-2.13,4.84-6.4v-10.7h9.15v9.9c0,5.47-1.22,9.7-3.65,12.7s-5.97,4.5-10.6,4.5-8.17-1.5-10.6-4.5Z"/>
      <path class="cls-1" d="m886.79,68.4c-2.52-3.07-3.78-7.4-3.78-13V18.6c0-5.6,1.26-9.93,3.78-13,2.52-3.07,6.16-4.6,10.91-4.6s8.39,1.53,10.91,4.6c2.52,3.07,3.78,7.4,3.78,13v36.8c0,5.6-1.26,9.93-3.78,13-2.52,3.07-6.16,4.6-10.91,4.6s-8.39-1.53-10.91-4.6Zm15.93-12.3V17.9c0-4.6-1.67-6.9-5.02-6.9s-5.02,2.3-5.02,6.9v38.2c0,4.6,1.67,6.9,5.02,6.9s5.02-2.3,5.02-6.9Z"/>
      <path class="cls-1" d="m918.91,2h9.68v60h15.93v10h-25.61V2Z"/>
      <path class="cls-1" d="m949.18,2h9.68v60h15.93v10h-25.61V2Z"/>
      <path class="cls-1" d="m987.28,2h13.11l10.03,70h-9.68l-1.76-13.9v.2h-11l-1.76,13.7h-8.98l10.03-70Zm10.56,46.8l-4.31-34.6h-.18l-4.22,34.6h8.71Z"/>
      <path class="cls-1" d="m1015.09,2h14.61c4.99,0,8.62,1.32,10.91,3.95,2.29,2.63,3.43,6.68,3.43,12.15v2.8c0,3.6-.51,6.53-1.54,8.8-1.03,2.27-2.6,3.9-4.71,4.9v.2c4.81,1.87,7.22,6.73,7.22,14.6v6c0,5.4-1.25,9.52-3.74,12.35-2.49,2.83-6.15,4.25-10.96,4.25h-15.22V2Zm13.46,28.5c1.94,0,3.39-.57,4.36-1.7.97-1.13,1.45-3.03,1.45-5.7v-3.9c0-2.53-.4-4.37-1.19-5.5-.79-1.13-2.04-1.7-3.74-1.7h-4.66v18.5h3.78Zm1.76,31.5c1.7,0,2.96-.52,3.78-1.55.82-1.03,1.23-2.82,1.23-5.35v-6.1c0-3.2-.48-5.42-1.45-6.65-.97-1.23-2.57-1.85-4.8-1.85h-4.31v21.5h5.54Z"/>
      <path class="cls-1" d="m1053.72,68.4c-2.52-3.07-3.78-7.4-3.78-13V18.6c0-5.6,1.26-9.93,3.78-13,2.52-3.07,6.16-4.6,10.91-4.6s8.39,1.53,10.91,4.6c2.52,3.07,3.78,7.4,3.78,13v36.8c0,5.6-1.26,9.93-3.78,13-2.52,3.07-6.16,4.6-10.91,4.6s-8.39-1.53-10.91-4.6Zm15.93-12.3V17.9c0-4.6-1.67-6.9-5.02-6.9s-5.02,2.3-5.02,6.9v38.2c0,4.6,1.67,6.9,5.02,6.9s5.02-2.3,5.02-6.9Z"/>
      <path class="cls-1" d="m1093.05,12h-10.12V2h29.92v10h-10.12v60h-9.68V12Z"/>
      <path class="cls-1" d="m1120.95,2h13.11l10.03,70h-9.68l-1.76-13.9v.2h-11l-1.76,13.7h-8.98l10.03-70Zm10.56,46.8l-4.31-34.6h-.18l-4.22,34.6h8.71Z"/>
      <path class="cls-1" d="m1148.76,2h9.68v70h-9.68V2Z"/>
      <path class="cls-1" d="m1168.73,68.4c-2.52-3.07-3.78-7.4-3.78-13V18.6c0-5.6,1.26-9.93,3.78-13,2.52-3.07,6.16-4.6,10.91-4.6s8.39,1.53,10.91,4.6c2.52,3.07,3.78,7.4,3.78,13v36.8c0,5.6-1.26,9.93-3.78,13-2.52,3.07-6.16,4.6-10.91,4.6s-8.39-1.53-10.91-4.6Zm15.93-12.3V17.9c0-4.6-1.67-6.9-5.02-6.9s-5.02,2.3-5.02,6.9v38.2c0,4.6,1.67,6.9,5.02,6.9s5.02-2.3,5.02-6.9Z"/>
      <path class="cls-1" d="m1200.85,2h12.14l9.42,41.9h.18V2h8.62v70h-9.94l-11.62-51.1h-.18v51.1h-8.62V2Z"/>
    </g>
  </g>
</svg>